<?xml version="1.0" encoding="UTF-8"?>
<!DOCTYPE svg PUBLIC "-//W3C//DTD SVG 1.1//EN" "http://www.w3.org/Graphics/SVG/1.1/DTD/svg11.dtd">
<!-- Creator: CorelDRAW 2020 (64-Bit) -->
<svg xmlns="http://www.w3.org/2000/svg" xml:space="preserve" width="41.6667in" height="41.6667in" version="1.1" style="shape-rendering:geometricPrecision; text-rendering:geometricPrecision; image-rendering:optimizeQuality; fill-rule:evenodd; clip-rule:evenodd"
viewBox="0 0 41666.66 41666.66"
 xmlns:xlink="http://www.w3.org/1999/xlink"
 xmlns:xodm="http://www.corel.com/coreldraw/odm/2003">
 <defs>
  <style type="text/css">
   <![CDATA[
    .fil4 {fill:none}
    .fil3 {fill:black}
    .fil0 {fill:#D4FFFF}
    .fil1 {fill:#D7B56D}
    .fil2 {fill:#FFBDDE}
    .fil5 {fill:white}
   ]]>
  </style>
 </defs>
 <g id="Слой_x0020_1">
  <metadata id="CorelCorpID_0Corel-Layer"/>
  <path class="fil0" d="M21321.73 4997.96c1514.46,0 2556.3,615.95 2556.3,2575.51 0,1959.55 -1350.76,4801.53 -2865.21,4801.53 -1514.45,0 -2860.04,-2750.69 -2860.04,-4710.24 0,-1959.55 1654.5,-2666.8 3168.96,-2666.8z"/>
  <path class="fil1" d="M20205.09 12766.07c436.97,0 883.4,-563.35 1041.58,1962.55 11.65,187.35 732.48,353.59 732.48,577.11 0,154.68 123.67,575.96 246.73,996.64 124.2,424.36 -794.5,1041.67 -797.82,1191 -12.52,558.54 -538.92,9.81 -572.81,504.41 593.13,45.89 1151.59,103.44 1524.79,103.44 1204.92,0 1066.63,36.96 1066.63,1167.79 0,165.27 -77.34,831.72 -352.19,1016.87 -516.93,347.89 -1160.26,-50.36 -1132.67,201.98 57.98,533.22 1854.9,751.31 1156.57,751.31 -415.42,0 -6076.12,509.06 -6406.67,320.04 -405.52,-231.93 895.57,215.02 1799.2,-444.85 156.08,-114.13 325.3,0.79 -519.04,-272.83 -356.48,-115.53 -801.41,-535.68 -1057.78,-679.5 -324.33,-182.18 110.89,-503.71 -30.83,-678.88 -320.21,-396.59 1136.08,-751.31 1136.08,-851.34 0,-472.96 548.81,-643.06 1275.34,-680.89 -13.93,-207.84 -602.07,4.73 -786.09,-212.4 -357.61,-421.73 -423.39,-1287.43 -428.47,-1751.64 -1.66,-154.33 1097.98,-581.31 1097.98,-739.05 0,-147.85 39.68,-37.14 41.69,-169.57 42.31,-2768.95 517.46,-2312.19 965.29,-2312.19z"/>
  <path class="fil2" d="M23032.29 21460.67c3626.25,0 5214.01,3881.65 5214.01,7145.29 0,3263.64 -4909.39,5098.22 -8535.63,5098.22 -3626.25,0 -2973.91,-5658.33 -2973.91,-8921.97 0,-3263.64 2669.28,-3321.54 6295.52,-3321.54z"/>
  <g id="_1978325314144">
   <path class="fil3" d="M24622.22 32522.35c2577.38,-2568.19 3926.08,-4659.74 2939.16,-8419.68 -585.85,-2231.95 -2535.23,-3012.77 -4689.5,-3166.94 -745.87,-53.37 -306.66,55 -832.07,-109.04 39.7,-721.33 -177.93,-561.74 831.03,-547.02l311.97 -255.46 54.5 -200.57 4.72 -436.8 -307.04 -329.45c-527.8,-22.6 -252.69,9.78 -866.79,-125.99 0.87,-132.06 7.7,-587.76 -26.09,-738.36 -242.85,-39.27 -1344.05,-85.65 -1148.15,-639.03 23.61,-66.72 80.58,-55.17 120.23,-64.92 -95.83,-31.5 -264.29,131.45 -93.52,-664.13 7.18,-0.57 1060.68,-488.62 1066.32,-491.03 -0.19,-735.55 -18.54,-380.58 48.13,-1065.26 -671.88,-231.74 -328.19,-102.42 -1029.59,-391.98 -259.85,-809.99 -137.28,-1579.85 -260.37,-1877.11 -3.47,-8.41 -4.54,-10.08 -7.72,-14.83 -113.67,-63.29 -134.24,-328.15 38.07,-462.26 781.84,-608.54 584.15,-411.72 1263.54,-1231.66l406.37 -945.59 334.9 -1215.98 148.41 -1366.34 -186.03 -693.85 -347.23 -709.86 -372.22 -538.19 -640.87 -444.08 -641.23 -282.73 -684.8 -85.49 -684.78 85.49 -641.23 282.73 -640.87 444.08 -372.19 538.17 -347.25 709.88 -186.02 693.85 148.41 1366.34 334.9 1215.98 406.36 945.59c678.43,818.78 472.82,616.07 1263.56,1231.68 172.23,134.07 151.71,398.69 38.24,462.15 -126.8,197.76 33.8,1111.36 -324.16,1948.17 -623.85,215.17 -318.54,134.14 -913.12,253.43 -16.37,767.95 -12.28,385.39 -12.47,1147.68 538.52,229.5 473.48,164.84 845.06,423.74 146.7,102.24 67.97,-28.27 310.22,162.95 -54.93,865.13 -91.3,490.2 -191.76,568.23 158.39,119.19 251.06,240.84 -39.13,495.68 -123.25,108.24 -767.98,172.4 -979.93,208.72 -79.44,298.13 67.43,392.93 -111.63,829.28l-780.78 34.83 -307.08 329.45 4.72 436.83 54.51 200.57 311.92 255.43c774.47,-13.46 973.84,-209.45 736.17,643.43 -2852.37,-66.17 -5020.81,886.88 -5560.11,3818.77 -661.61,3596.59 659.65,5377.08 3073.91,7781.83 3013.71,1126.92 6114.29,984.75 9130.41,-1.32zm-3882.23 -19536.22c5.67,4.3 10.75,5.36 18.73,7.74 -6.49,-1.98 -12.73,-4.6 -18.73,-7.74zm-1367.38 0.07c-5.98,3.12 -12.21,5.72 -18.68,7.7 7.94,-2.36 13.04,-3.44 18.68,-7.7zm5363.5 19676.69c-2.03,2.15 -4.18,4.2 -6.4,6.14l-0.76 0.66 -1.02 0.83 -3.57 2.81 -0.61 0.47 -1.23 0.87 -0.59 0.43 -1.25 0.85 -0.59 0.4 -1.3 0.83 -0.59 0.38 -1.3 0.8 -0.61 0.35 -1.32 0.76 -0.64 0.35 -2.01 1.09 -1.28 0.66 -0.76 0.35 -1.23 0.61 -0.83 0.38 -1.18 0.54 -0.92 0.38 -2.13 0.9 -0.99 0.4 -1.18 0.43c-2.39,0.87 -4.8,1.65 -7.2,2.34 -2665.61,873.47 -4880.48,1063.13 -7634.94,476.6 -1245.97,-265.33 -1421.79,-213.14 -2232.47,-1048.42 -2225.05,-2292.57 -3181.32,-4172.16 -2586.31,-7407.02 556.75,-3026.89 2805.23,-4034.93 5747.41,-3965.66 -150.77,-160.94 -121.6,-89.7 -103.8,-293.69 -650.58,24.85 -612.09,119.59 -1090.93,-304.48 -115.72,-102.49 -130.65,-775.6 -89.53,-841.21 348.67,-556.19 621.39,-433.38 1246.42,-461.25l-86.72 -27.59 2.41 -264.93c24.09,-1169.59 1007.52,-201.56 1165.04,-897.51 -192.09,-72.03 -179.74,-295.34 44,-331.05l20.9 -329.17c-154.24,-33.65 -251.16,-67.35 -331.85,-203.26 -488.41,-190.2 -236.28,-80.46 -788.29,-355.54 -38.73,-865.25 -34.86,-447.65 -17.67,-1252.77 703.57,-321.72 357.76,-184.92 1034.32,-418.27 0,0 126.82,-595.13 126.82,-595.13 21.56,-189.21 -76.66,-1118.68 145.03,-1318.23 24.77,-54.48 32.69,-121.01 -14.22,-165.86 -583.96,-558.26 -652.64,-349.38 -1323.39,-1287.75 -410,-573.59 -1030.19,-3025.38 -921.08,-3663.16 245.23,-1433.53 1174.51,-2671 2684.91,-2859.57 884.74,-110.45 1396.83,80.72 2117.81,580.3 592.67,410.66 811.48,875.48 1099.62,1544.48 499.63,1159.91 -146.14,3288.3 -708.94,4376.04 -440.28,850.99 -1467.75,1151.53 -1354.04,1466.97 28.88,19.22 47.99,46.55 64.97,86.91 151.97,361.33 0.83,1065.26 265.8,1891.14 597.16,154.9 290.69,63.41 917.85,279.71 97.51,886.27 82.96,441.2 42.93,1335.19 -552.17,275.18 -299.74,165.29 -788.69,355.71 -94.25,154.35 -236.49,201.52 -425.7,215.48 136.45,196.15 108.82,111.66 116.22,316.98 223.55,36.39 234.67,260.51 40.95,331.59 28.01,161.8 78.83,216.56 274.7,249.01 1005.74,166.64 900.82,-12.8 893.97,1031.42 555.76,-125.52 644.46,-185.91 971.71,165.22 247.55,265.61 338.23,685.13 117.7,1025.41 -282.87,436.55 -670.65,348.41 -1112.11,325.79 8.1,213.68 8.62,120.44 -6.19,389.46 241.07,-214.63 86.69,-124.95 664.3,-83.63 2241.77,160.4 4245.14,990.09 4853.11,3306.04 1005.01,3828.24 -371.44,5983.08 -3000.59,8600.7z"/>
  </g>
  <path class="fil4" d="M24670.61 32601.18c3082.58,-2978.43 3790.73,-4998.78 2978.43,-8518.75 -812.3,-3519.98 -5519.49,-3249.19 -5519.49,-3249.19 0,0 28.65,-393.14 5.22,-476.46 0,0 695.15,18.21 768.05,13.01l359.28 -294.19 65.09 -239.54 5.22 -484.25 -356.67 -382.7 -817.52 -36.46c0,0 10.41,-747.19 -44.26,-801.87 -54.67,-54.67 -877.39,-135.39 -939.88,-177.05 -62.49,-41.66 -177.03,-109.34 -195.26,-369.69 0,0 158.8,0 143.19,-114.56 0,0 -26.05,-83.32 -169.24,-62.49l-31.24 -492.07c0,0 283.77,-2.6 364.49,-197.85 0,0 739.43,-278.58 775.87,-333.25 36.44,-54.67 2.6,-1200.22 2.6,-1200.22l-973.72 -335.85c0,0 -190.04,-559.73 -187.44,-682.11 2.6,-122.38 33.84,-1228.87 -127.57,-1260.11 0,0 -111.94,-192.69 52.07,-309.82 164.02,-117.13 632.68,-465.97 632.68,-465.97l656.08 -791.45 413.97 -963.26 338.47 -1228.87 151 -1390.29 -192.66 -718.57 -354.08 -723.79 -385.32 -557.15 -661.3 -458.22 -661.3 -291.59 -708.98 -88.51 -708.96 88.51 -661.3 291.59 -661.3 458.22 -385.32 557.15 -354.08 723.79 -192.66 718.57 151 1390.29 338.47 1228.87 413.97 963.26 656.08 791.45c0,0 468.67,348.83 632.68,465.97 164.02,117.14 52.07,309.82 52.07,309.82 -161.42,31.24 -130.17,1137.74 -127.57,1260.11 2.6,122.38 -187.44,682.11 -187.44,682.11l-973.72 335.85c0,0 -33.84,1145.55 2.6,1200.22 36.44,54.67 775.86,333.25 775.86,333.25 80.72,195.26 364.49,197.85 364.49,197.85l-31.24 492.07c-143.19,-20.83 -169.23,62.49 -169.23,62.49 -15.61,114.56 143.19,114.56 143.19,114.56 -18.23,260.35 -132.77,328.03 -195.26,369.69 -62.49,41.66 -885.21,122.38 -939.88,177.05 -54.67,54.67 -44.26,801.87 -44.26,801.87l-817.52 36.46 -356.68 382.7 5.22 484.25 65.09 239.54 359.27 294.19c72.91,5.2 768.05,-13.01 768.05,-13.01 -23.43,83.32 5.22,476.46 5.22,476.46 0,0 -4707.19,-270.78 -5519.49,3249.19 -812.3,3519.98 -104.15,5540.32 2978.43,8518.75 0,0 4361.42,1802.86 9228.49,0z"/>
  <g id="_1978325309872">
   <path class="fil3" d="M17343.65 20915.56c-3396.7,979.22 3179.69,1016.98 3470.81,1008.93 905.66,-25.08 4830.09,-257.28 1791.08,-1040.04 164.08,23.28 1237.96,122.64 1243.09,481.18 13.37,935.89 -5278.94,691.34 -5883.04,611.83 -1309.35,-172.38 -2720.43,-721.64 -621.93,-1061.91z"/>
  </g>
  <path class="fil4" d="M17343.65 20915.56c-631.33,117.47 -1018.35,275.86 -1018.35,450.08 0,362.34 1673.87,656.11 3738.69,656.11 2064.81,0 3738.69,-293.76 3738.69,-656.11 0,-190.11 -460.85,-361.38 -1197.13,-481.18"/>
  <g id="_1978325309824">
   <path class="fil3" d="M17983.56 21081.6c189.97,430.08 3970.98,430.06 4160.86,0 74.38,283.52 -1524.52,395.98 -1659.54,402.59 -190.81,9.34 -2602.81,-15.8 -2501.32,-402.59z"/>
  </g>
  <path class="fil4" d="M17983.56 21081.6c0,201.64 931.45,365.08 2080.43,365.08 1148.97,0 2080.43,-163.44 2080.43,-365.08"/>
  <g id="_1978325308384">
   <path class="fil3" d="M19991.22 20699.33c76.87,-52.41 36.84,-29.85 119.9,-68.02l0 0c77.65,-33.04 46.33,-20.05 110.12,-46.03 42.37,-66.15 84.93,-131.28 128.19,-196.77 -3.8,-74.04 -7.3,-147.98 -10.65,-222.02 -45.72,-56.3 -91.33,-112.63 -136.81,-169.07l-108 -29.97 -0.02 -0.02 -102.73 -28.67 -102.73 28.67 -0.02 0.02 -108 29.97c-45.48,56.44 -91.09,112.77 -136.81,169.07 -3.33,74.06 -6.85,147.98 -10.65,222.02 43.26,65.49 85.82,130.62 128.19,196.77 63.79,25.98 32.47,12.99 110.12,46.03l0 0c83.06,38.16 43.03,15.61 119.9,67.99l0 0.02zm0 0l0 0.02c-216.2,-3.45 -247.99,-7.82 -376.16,-158.82l0 0c-153.7,-182.86 -154.03,-356.44 -20.69,-551.77l0 0c206.36,-301.51 587.33,-301.51 793.69,0l0 0c133.34,195.33 133.01,368.91 -20.69,551.77l0 0c-128.14,150.98 -159.98,155.4 -376.16,158.8z"/>
  </g>
  <polygon class="fil4" points="19991.22,20699.33 20119.76,20658.57 20248.31,20617.78 20327.75,20511.04 20407.22,20404.29 20407.22,20272.35 20407.22,20140.4 20327.75,20033.66 20248.31,19926.91 20119.76,19886.13 19991.22,19845.37 19862.68,19886.13 19734.13,19926.91 19654.69,20033.66 19575.22,20140.4 19575.22,20272.35 19575.22,20404.29 19654.69,20511.04 19734.13,20617.78 19862.68,20658.57 "/>
  <g id="_1978325309680">
   <path class="fil3" d="M19277.85 12607.54c562.14,-109.7 946.44,-46.85 1551.7,-20.83 -752.63,95.93 -906.63,204.35 -1551.7,20.83z"/>
  </g>
  <path class="fil4" d="M19277.85 12607.54c0,0 1119.5,57.27 1551.7,-20.83"/>
  <g id="_1978325308480">
   <path class="fil3" d="M19501.75 6350.18c-313.93,440.82 -181.73,252.91 -446.84,633.57 546.22,-55.83 304.27,-53.49 859.58,-6.61 -247.19,-379.96 -123.68,-191.95 -412.74,-626.96zm0 0c515.28,664.04 844.49,741.08 -20,751.66 -888.09,10.86 -525.93,-93.61 20,-751.66z"/>
  </g>
  <polygon class="fil4" points="19501.75,6350.18 18981.04,7027.09 19980.81,7016.67 "/>
  <g id="_1978325301472">
   <path class="fil3" d="M20553.59 6350.18c-313.93,440.82 -181.73,252.91 -446.84,633.57 546.22,-55.83 304.27,-53.49 859.58,-6.61 -247.19,-379.96 -123.68,-191.95 -412.74,-626.96zm0 0c515.28,664.04 844.49,741.08 -20,751.66 -888.09,10.86 -525.93,-93.61 20,-751.66z"/>
  </g>
  <polygon class="fil4" points="20553.59,6350.18 20032.88,7027.09 21032.65,7016.67 "/>
  <g id="_1978325298640">
   <path class="fil3" d="M21554.01 6353.84c-245.28,440.82 -141.99,252.91 -349.09,633.55 426.71,-55.8 237.65,-53.42 671.52,-6.56 -193.1,-379.96 -96.6,-191.98 -322.43,-626.99zm0 0c402.54,664.06 659.71,741.07 -15.65,751.66 -693.81,10.86 -410.9,-93.61 15.65,-751.66z"/>
  </g>
  <polygon class="fil4" points="21553.99,6353.84 21147.19,7030.75 21928.25,7020.33 "/>
  <g id="_1978325295232">
   <path class="fil3" d="M18570.56 6353.63c-248.54,440.82 -143.87,252.91 -353.76,633.57 432.43,-55.83 240.89,-53.49 680.52,-6.61 -195.69,-379.96 -97.91,-191.95 -326.76,-626.96zm0 0c407.94,664.04 668.57,741.07 -15.84,751.66 -703.08,10.86 -416.37,-93.61 15.84,-751.66z"/>
  </g>
  <polygon class="fil4" points="18570.56,6353.63 18158.32,7030.54 18949.81,7020.12 "/>
  <g id="_1978325296672">
   <path class="fil3" d="M19364.12 6978.68c-393.71,611.47 -227.91,350.81 -560.41,878.85 685.04,-77.44 381.6,-74.2 1078.04,-9.17 -310.01,-527.05 -155.11,-266.26 -517.64,-869.67zm0 0c646.24,921.1 1059.12,1027.96 -25.09,1042.64 -1113.79,15.07 -659.59,-129.85 25.09,-1042.64z"/>
  </g>
  <polygon class="fil4" points="19364.12,6978.68 18711.07,7917.63 19964.93,7903.19 "/>
  <g id="_1978325291776">
   <path class="fil3" d="M20683.29 6978.68c-393.72,611.47 -227.91,350.81 -560.41,878.85 685.04,-77.44 381.6,-74.2 1078.05,-9.17 -310.02,-527.05 -155.11,-266.26 -517.64,-869.67zm0 0c646.24,921.1 1059.12,1027.96 -25.09,1042.64 -1113.8,15.07 -659.6,-129.85 25.09,-1042.64z"/>
  </g>
  <polygon class="fil4" points="20683.29,6978.68 20030.23,7917.63 21284.09,7903.19 "/>
  <g id="_1978325291968">
   <path class="fil3" d="M21937.93 6983.75c-307.58,611.47 -178.05,350.81 -437.81,878.85 535.18,-77.44 298.12,-74.2 842.21,-9.17 -242.2,-527.05 -121.18,-266.26 -404.4,-869.67zm0 0c504.87,921.11 827.43,1027.96 -19.6,1042.64 -870.14,15.07 -515.3,-129.86 19.6,-1042.64z"/>
  </g>
  <polygon class="fil4" points="21937.93,6983.75 21427.74,7922.71 22407.3,7908.26 "/>
  <g id="_1978325290192">
   <path class="fil3" d="M18196.27 6983.46c-311.7,611.47 -180.44,350.81 -443.67,878.84 542.33,-77.44 302.11,-74.2 853.47,-9.17 -245.43,-527.06 -122.8,-266.26 -409.8,-869.67zm0 0c511.61,921.1 838.48,1027.96 -19.86,1042.64 -881.77,15.07 -522.19,-129.85 19.86,-1042.64z"/>
  </g>
  <polygon class="fil4" points="18196.27,6983.46 17679.26,7922.42 18671.91,7907.97 "/>
  <g id="_1978325288752">
   <path class="fil3" d="M19364.12 7915.96c-393.71,827.32 -227.91,474.65 -560.41,1189.08 685.04,-104.78 381.6,-100.39 1078.04,-12.41 -310.01,-713.11 -155.11,-360.25 -517.64,-1176.67zm0 0c646.24,1246.26 1059.12,1390.84 -25.09,1410.69 -1113.79,20.39 -659.59,-175.69 25.09,-1410.69z"/>
  </g>
  <polygon class="fil4" points="19364.12,7915.96 18711.07,9186.37 19964.93,9166.83 "/>
  <g id="_1978325287648">
   <path class="fil3" d="M20683.29 7915.96c-393.72,827.32 -227.91,474.65 -560.41,1189.08 685.04,-104.78 381.6,-100.39 1078.05,-12.41 -310.02,-713.11 -155.11,-360.25 -517.64,-1176.67zm0 0c646.24,1246.26 1059.12,1390.84 -25.09,1410.69 -1113.8,20.39 -659.6,-175.69 25.09,-1410.69z"/>
  </g>
  <polygon class="fil4" points="20683.29,7915.96 20030.23,9186.37 21284.09,9166.83 "/>
  <g id="_1978325288032">
   <path class="fil3" d="M21937.93 7922.83c-307.58,827.32 -178.05,474.65 -437.81,1189.08 535.18,-104.78 298.12,-100.39 842.21,-12.41 -242.2,-713.11 -121.18,-360.25 -404.4,-1176.67zm0 0c504.87,1246.26 827.43,1390.84 -19.6,1410.69 -870.14,20.39 -515.3,-175.69 19.6,-1410.69z"/>
  </g>
  <polygon class="fil4" points="21937.93,7922.83 21427.74,9193.24 22407.3,9173.69 "/>
  <g id="_1978325286784">
   <path class="fil3" d="M18196.27 7922.43c-311.7,827.32 -180.44,474.65 -443.67,1189.08 542.33,-104.78 302.11,-100.39 853.47,-12.41 -245.43,-713.1 -122.8,-360.25 -409.8,-1176.67zm0 0c511.61,1246.26 838.48,1390.84 -19.86,1410.69 -881.77,20.39 -522.19,-175.69 19.86,-1410.69z"/>
  </g>
  <polygon class="fil4" points="18196.27,7922.43 17679.26,9192.84 18671.91,9173.3 "/>
  <g id="_1978325285104">
   <path class="fil3" d="M18795.95 9217.73c-222,746.37 -128.51,428.2 -316,1072.74 386.28,-94.52 215.17,-90.57 607.88,-11.2 -174.81,-643.33 -87.46,-325 -291.88,-1061.54zm0 0c364.4,1124.32 597.21,1254.75 -14.15,1272.67 -628.04,18.39 -371.93,-158.5 14.15,-1272.67z"/>
  </g>
  <polygon class="fil4" points="18795.95,9217.73 18427.71,10363.84 19134.73,10346.21 "/>
  <g id="_1978325284720">
   <path class="fil3" d="M19539.79 9217.73c-222.01,746.37 -128.52,428.2 -316,1072.74 386.28,-94.52 215.17,-90.57 607.88,-11.2 -174.81,-643.33 -87.46,-325 -291.88,-1061.54zm0 0c364.39,1124.32 597.2,1254.75 -14.15,1272.67 -628.04,18.39 -371.93,-158.5 14.15,-1272.67z"/>
  </g>
  <polygon class="fil4" points="19539.79,9217.73 19171.55,10363.84 19878.57,10346.21 "/>
  <g id="_1978325282320">
   <path class="fil3" d="M20247.25 9223.93c-173.45,746.41 -100.39,428.17 -246.87,1072.74 301.78,-94.52 168.09,-90.57 474.9,-11.19 -136.57,-643.33 -68.33,-325 -228.03,-1061.54zm0 0c284.67,1124.32 466.56,1254.75 -11.04,1272.67 -490.65,18.39 -290.57,-158.5 11.04,-1272.67z"/>
  </g>
  <polygon class="fil4" points="20247.25,9223.93 19959.57,10370.04 20511.91,10352.41 "/>
  <g id="_1978325281552">
   <path class="fil3" d="M18137.44 9223.57c-175.78,746.37 -101.75,428.2 -250.18,1072.7 305.79,-94.49 170.31,-90.45 481.24,-11.12 -138.37,-643.33 -69.24,-325.04 -231.06,-1061.58zm0 0c288.47,1124.4 472.74,1254.75 -11.22,1272.63 -497.2,18.39 -294.46,-158.43 11.22,-1272.63z"/>
  </g>
  <polygon class="fil4" points="18137.43,9223.57 17845.91,10369.68 18405.63,10352.05 "/>
  <g id="_1978325281504">
   <path class="fil3" d="M21514.04 9217.73c-222,746.37 -128.51,428.2 -316,1072.74 386.28,-94.52 215.17,-90.57 607.88,-11.2 -174.81,-643.33 -87.46,-325 -291.88,-1061.54zm0 0c364.4,1124.32 597.21,1254.75 -14.15,1272.67 -628.04,18.39 -371.93,-158.5 14.15,-1272.67z"/>
  </g>
  <polygon class="fil4" points="21514.04,9217.73 21145.8,10363.84 21852.81,10346.21 "/>
  <g id="_1978325346928">
   <path class="fil3" d="M20855.53 9223.57c-175.78,746.37 -101.76,428.2 -250.18,1072.7 305.79,-94.49 170.31,-90.45 481.24,-11.12 -138.37,-643.33 -69.24,-325.04 -231.06,-1061.58zm0 0c288.47,1124.4 472.74,1254.75 -11.22,1272.63 -497.2,18.39 -294.46,-158.43 11.22,-1272.63z"/>
  </g>
  <polygon class="fil4" points="20855.52,9223.57 20563.99,10369.68 21123.72,10352.05 "/>
  <g id="_1978325346160">
   <path class="fil3" d="M19585.52 10363.28c-265.37,753.1 -153.61,432.07 -377.72,1082.41 461.72,-95.38 257.2,-91.39 726.61,-11.3 -208.95,-649.13 -104.55,-327.93 -348.89,-1071.11zm0 0c435.57,1134.46 713.86,1266.07 -16.91,1284.14 -750.7,18.56 -444.57,-159.93 16.91,-1284.14z"/>
  </g>
  <polygon class="fil4" points="19585.52,10363.28 19145.36,11519.73 19990.47,11501.94 "/>
  <g id="_1978325344672">
   <path class="fil3" d="M20474.65 10363.28c-265.37,753.1 -153.61,432.07 -377.7,1082.37 461.7,-95.34 257.16,-91.35 726.57,-11.26 -208.93,-649.13 -104.55,-327.93 -348.87,-1071.11zm0 0c435.56,1134.5 713.81,1266.07 -16.91,1284.14 -750.71,18.56 -444.58,-159.93 16.91,-1284.14z"/>
  </g>
  <polygon class="fil4" points="20474.65,10363.28 20034.49,11519.73 20879.6,11501.94 "/>
  <g id="_1978325343904">
   <path class="fil3" d="M21320.3 10369.54c-207.31,753.11 -120.01,432.07 -295.09,1082.41 360.72,-95.38 200.94,-91.38 567.66,-11.3 -163.24,-649.13 -81.68,-327.93 -272.57,-1071.11zm0 0c340.29,1134.46 557.69,1266.07 -13.21,1284.14 -586.48,18.56 -347.32,-159.93 13.21,-1284.14z"/>
  </g>
  <polygon class="fil4" points="21320.3,10369.54 20976.43,11525.98 21636.66,11508.19 "/>
  <g id="_1978325345200">
   <path class="fil3" d="M18798.4 10369.17c-210.1,753.1 -121.63,432.07 -299.05,1082.41 365.54,-95.38 203.62,-91.39 575.26,-11.3 -165.42,-649.13 -82.76,-327.94 -276.21,-1071.11zm0 0c344.83,1134.5 565.15,1266.07 -13.39,1284.14 -594.34,18.56 -351.98,-159.93 13.39,-1284.14z"/>
  </g>
  <polygon class="fil4" points="18798.38,10369.17 18449.91,11525.62 19118.97,11507.83 "/>
  <g id="_1978325342800">
   <path class="fil3" d="M19717.18 11894.16c-158.52,187 -99.51,124 -227.94,253.18 263.73,-8.95 166.58,-8.28 436.99,-2.58 -120.03,-129.8 -64.88,-66.2 -209.04,-250.6zm0 0c405.42,309.46 486.3,317.93 -11.98,322.06 -515.75,4.28 -412.46,-17.09 11.98,-322.06z"/>
  </g>
  <polygon class="fil4" points="19717.18,11894.16 19403.6,12180.58 20005.67,12176.17 "/>
  <g id="_1978325338528">
   <path class="fil3" d="M20350.58 11894.16c-158.52,187 -99.51,124 -227.94,253.18 263.73,-8.95 166.58,-8.28 436.99,-2.58 -120.03,-129.8 -64.88,-66.2 -209.05,-250.6zm0 0c405.42,309.46 486.3,317.93 -11.97,322.06 -515.75,4.28 -412.46,-17.09 11.97,-322.06z"/>
  </g>
  <polygon class="fil4" points="20350.6,11894.16 20037.02,12180.58 20639.09,12176.17 "/>
  <g id="_1978325340208">
   <path class="fil3" d="M20953.04 11895.72c-123.82,186.98 -77.73,123.99 -178.06,253.16 206.01,-8.95 130.11,-8.28 341.34,-2.57 -93.76,-129.78 -50.67,-66.22 -163.28,-250.59zm0 0c316.7,309.44 379.87,317.9 -9.35,322.05 -402.93,4.3 -322.21,-17.09 9.35,-322.05z"/>
  </g>
  <polygon class="fil4" points="20953.04,11895.71 20708.06,12182.13 21178.42,12177.72 "/>
  <g id="_1978325338480">
   <path class="fil3" d="M19156.41 11895.63c-125.48,186.98 -78.78,123.98 -180.45,253.15 208.78,-8.95 131.88,-8.27 345.93,-2.57 -95.03,-129.78 -51.35,-66.21 -165.48,-250.58zm0 0c320.96,309.43 384.97,317.89 -9.48,322.04 -408.32,4.3 -326.54,-17.09 9.48,-322.04z"/>
  </g>
  <polygon class="fil4" points="19156.41,11895.62 18908.16,12182.04 19384.8,12177.63 "/>
  <g id="_1978325336176">
   <path class="fil3" d="M19095.6 5652.44c-313.93,440.82 -181.72,252.91 -446.84,633.57 546.22,-55.83 304.27,-53.49 859.58,-6.61 -247.19,-379.96 -123.68,-191.95 -412.74,-626.96zm0 0c515.28,664.04 844.49,741.07 -20,751.66 -888.09,10.86 -525.94,-93.61 20,-751.66z"/>
  </g>
  <polygon class="fil4" points="19095.6,5652.44 18574.89,6329.35 19574.65,6318.93 "/>
  <g id="_1978325332384">
   <path class="fil3" d="M20147.44 5652.44c-313.93,440.82 -181.72,252.91 -446.84,633.57 546.22,-55.83 304.27,-53.49 859.59,-6.61 -247.19,-379.96 -123.68,-191.95 -412.74,-626.96zm0 0c515.28,664.04 844.5,741.07 -20,751.66 -888.09,10.86 -525.93,-93.61 20,-751.66z"/>
  </g>
  <polygon class="fil4" points="20147.44,5652.44 19626.73,6329.35 20626.5,6318.93 "/>
  <g id="_1978325333440">
   <path class="fil3" d="M21063.03 5656.09c-300.83,440.82 -174.15,252.91 -428.2,633.58 523.44,-55.83 291.58,-53.49 823.73,-6.61 -236.88,-379.96 -118.52,-191.95 -395.52,-626.96zm0 0c493.79,664.04 809.26,741.08 -19.17,751.66 -851.04,10.87 -503.99,-93.61 19.17,-751.66z"/>
  </g>
  <polygon class="fil4" points="21063.03,5656.09 20564.04,6333.01 21522.1,6322.59 "/>
  <g id="_1978325331376">
   <path class="fil3" d="M18591.4 5635.06c-505.05,452.32 -312.03,275.25 -704.65,641.77 344.05,-0.24 185.24,-3.5 640.09,20.43 42.52,-425.94 21.72,-213.16 64.56,-662.2zm0 0c-3.27,74.84 0.24,703.79 -47.53,711.58 -1521.2,248.02 -629.72,-190.04 47.53,-711.58z"/>
  </g>
  <polygon class="fil4" points="18591.4,5635.06 17752.17,6332.8 18543.67,6322.38 "/>
  <g id="_1978325332576">
   <path class="fil3" d="M21504.31 5614.44c55.46,469.09 28.66,246.01 83.07,692.33 370.72,-35.33 241.38,-27.85 521.7,-37.2 -339.41,-376.87 -172.31,-194.62 -604.77,-655.14zm697.94 744.2l-2.2 11.88 -7.93 -8.79c-56.98,15.63 -152.24,21.21 -294.78,16.48 -491.36,-16.37 -327.06,98.81 -393.04,-763.77 452.96,415.67 921.89,671.86 697.94,744.2z"/>
  </g>
  <polygon class="fil4" points="21504.31,5614.44 21574.2,6333.01 22219.84,6322.59 "/>
  <g id="_1978325330080">
   <path class="fil3" d="M19481.66 5089.96c-177.84,198.04 -102.95,113.62 -253.11,284.63 309.39,-25.07 172.31,-24 486.89,-2.95 -140.01,-170.7 -70.04,-86.24 -233.78,-281.68zm0 0c291.86,298.33 478.33,332.93 -11.35,337.69 -503.05,4.88 -297.92,-42.06 11.35,-337.69z"/>
  </g>
  <polygon class="fil4" points="19481.64,5089.96 19186.69,5394.07 19753,5389.39 "/>
  <g id="_1978325326480">
   <path class="fil3" d="M20077.45 5089.96c-177.82,198.04 -102.94,113.62 -253.09,284.63 309.39,-25.07 172.32,-24.02 486.87,-2.96 -140,-170.7 -70.06,-86.24 -233.78,-281.67zm0 0c291.86,298.33 478.33,332.93 -11.33,337.69 -503.05,4.88 -297.91,-42.06 11.33,-337.69z"/>
  </g>
  <polygon class="fil4" points="20077.45,5089.96 19782.5,5394.07 20348.8,5389.39 "/>
  <g id="_1978325325376">
   <path class="fil3" d="M20596.07 5091.6c-170.42,198.05 -98.66,113.62 -242.55,284.65 296.49,-25.08 165.15,-24.01 466.6,-2.97 -134.18,-170.7 -67.13,-86.24 -224.05,-281.68zm0 0c279.72,298.35 458.41,332.93 -10.86,337.69 -482.09,4.9 -285.51,-42.03 10.86,-337.69z"/>
  </g>
  <polygon class="fil4" points="20596.07,5091.61 20313.43,5395.72 20856.11,5391.04 "/>
  <g id="_1978325327680">
   <path class="fil3" d="M19196.04 5082.16c-286.07,203.21 -176.74,123.65 -399.13,288.33 194.89,-0.13 104.94,-1.57 362.55,9.15 24.08,-191.35 12.31,-95.75 36.58,-297.48zm0 0c-1.85,33.62 0.11,316.17 -26.93,319.67 -861.66,111.47 -356.69,-85.35 26.93,-319.67z"/>
  </g>
  <polygon class="fil4" points="19196.04,5082.16 18720.67,5395.62 19169,5390.94 "/>
  <g id="_1978325323600">
   <path class="fil3" d="M20846.04 5072.89c31.41,210.75 16.23,110.53 47.06,311.05 210,-15.89 136.71,-12.51 295.52,-16.73 -192.27,-169.32 -97.61,-87.41 -342.57,-294.31zm395.34 334.33l-1.24 5.33 -4.48 -3.95c-32.27,7.02 -86.23,9.54 -166.99,7.42 -278.33,-7.33 -185.27,44.4 -222.63,-343.13 256.58,186.73 522.19,301.83 395.34,334.33z"/>
  </g>
  <polygon class="fil4" points="20846.04,5072.89 20885.62,5395.72 21251.34,5391.04 "/>
  <g id="_1978325323216">
   <path class="fil3" d="M17779.71 7056.38c-357.28,559.85 -221.96,340.79 -495.11,793.67 186.79,6.69 111.1,-0.39 369.94,53.79 81.41,-531.54 42.09,-266.33 125.17,-847.46zm0 0c-12.07,166.38 -13.69,943.31 -99.05,953.7 -1029.56,125.46 -440.78,-260.92 99.05,-953.7z"/>
  </g>
  <polygon class="fil4" points="17779.71,7056.38 17168.96,7922.42 17682.54,7960.06 "/>
  <g id="_1978325319088">
   <path class="fil3" d="M22324 7056.38c368.71,559.85 229.06,340.79 510.94,793.67 -192.76,6.69 -114.65,-0.39 -381.78,53.79 -84.02,-531.54 -43.44,-266.33 -129.17,-847.46zm0 0c12.46,166.38 14.13,943.31 102.21,953.7 1062.5,125.46 454.88,-260.92 -102.21,-953.7z"/>
  </g>
  <polygon class="fil4" points="22324,7056.38 22954.29,7922.42 22424.28,7960.06 "/>
  <g id="_1978325321488">
   <path class="fil3" d="M22396.92 7983.26c204.73,745.09 120.08,427.99 287.96,1072.09 -151.6,-6.59 -89.99,-13.63 -265.99,43.54 -16.65,-697.13 -9.64,-349.6 -21.97,-1115.62zm0 0c-5.81,222.76 -84.77,1228.08 -4.35,1244.63 674.36,138.6 330.22,-269.05 4.35,-1244.63z"/>
  </g>
  <polygon class="fil4" points="22396.92,7983.26 22745.21,9130.46 22391.01,9168.1 "/>
  <g id="_1978325318512">
   <path class="fil3" d="M22011.59 9337.07c262.72,641.51 156.42,374.3 367.74,918.52 -232.23,-11.83 -138.34,-18.84 -400.29,42.09 16.09,-591.46 6.39,-297.48 32.54,-960.61zm0 0c-24.37,221.19 -196.7,1067.43 -74.55,1086.01 981.14,149.31 496.79,-255.02 74.55,-1086.01z"/>
  </g>
  <polygon class="fil4" points="22011.59,9337.07 22464.82,10328.08 21934.81,10365.72 "/>
  <g id="_1978325317504">
   <path class="fil3" d="M17620.63 7993.67c-192.35,745.09 -112.82,427.99 -270.54,1072.09 142.43,-6.58 84.54,-13.63 249.89,43.54 15.65,-697.13 9.06,-349.6 20.65,-1115.62zm0 0c5.45,222.76 79.63,1228.08 4.09,1244.63 -633.56,138.6 -310.24,-269.04 -4.09,-1244.63z"/>
  </g>
  <polygon class="fil4" points="17620.63,7993.67 17293.4,9140.87 17626.17,9178.51 "/>
  <g id="_1978267018944">
   <path class="fil3" d="M17987.38 6374.75c-404.76,475.17 -245.58,284.86 -569.04,676.94 345.48,2.68 180.41,-3.26 604.87,27.88 -22.8,-455.11 -11.25,-227.79 -35.83,-704.82zm-634.89 756.75l-15.6 18.88 -2.96 -26.35c-171.57,-84.04 267.42,-351.28 653.45,-749.28 70.64,946.96 172.07,747.87 -307.9,773.59 -164.96,8.85 -269.36,2.84 -326.98,-16.84z"/>
  </g>
  <polygon class="fil4" points="17987.38,6374.75 17325.8,7103.5 18033.04,7099.25 "/>
  <g id="_1978267034592">
   <path class="fil3" d="M21998.75 6301.84c434.07,475.17 263.36,284.87 610.24,676.94 -370.5,2.68 -193.48,-3.27 -648.67,27.88 24.45,-455.12 12.07,-227.8 38.43,-704.82zm680.86 756.75l16.73 18.89 3.18 -26.35c183.99,-84.03 -286.78,-351.28 -700.76,-749.28 -75.75,946.96 -184.53,747.87 330.2,773.59 176.9,8.85 288.86,2.84 350.66,-16.84z"/>
  </g>
  <polygon class="fil4" points="21998.75,6301.84 22708.24,7030.59 21949.79,7026.35 "/>
  <g id="_1978267033488">
   <path class="fil3" d="M17189.84 19027.91c265.33,484.28 155.63,808.59 0,1270.51 -3.23,-340.9 -38.63,-950.46 0,-1270.51z"/>
  </g>
  <path class="fil4" d="M17189.84 19027.91c0,0 166.61,713.33 0,1270.51"/>
  <g id="_1978267034016">
   <path class="fil3" d="M22980.11 19053.94c25.77,290.98 -50.07,896.66 -83.31,1176.8 -90.1,-410.43 -202.87,-802.76 83.31,-1176.8z"/>
  </g>
  <path class="fil4" d="M22980.11 19053.94c0,0 -171.85,484.25 -83.31,1176.8"/>
  <g id="_1978267032768">
   <path class="fil3" d="M19964.8 19480.73c-127.36,7.65 -209.38,-217.06 -209.45,-217.11l-0.26 0.19 0.19 0.43 -0.14 0.26c-95.65,9.07 -400.58,-330.89 -253.71,-461.81 -445.4,202.84 -644.54,-75.85 -507.35,-229.38 -69.72,-169.26 -249.32,-603.09 269.34,-480.35 193.16,45.7 156.39,213.25 150.43,344.51 177.45,35.21 277.63,-552.15 -214.08,-857.13 151.33,24.06 243.13,80.11 323.96,214.95l0 -0.02c78.24,188.22 285.57,673.18 -64.87,762.28 -133.15,18.42 -199.35,-56.11 -168.72,-180.02 4.06,-157.85 -55.24,-177.62 -200.05,-116.38 -172.21,160.97 193.6,198.94 50.94,402.19 473.56,175.82 667.07,-430.1 798.94,-209.07 9.78,16.39 18.07,32.07 25.04,47.16 6.96,-15.09 15.28,-30.77 25.06,-47.16 131.87,-221.02 325.39,384.9 798.94,209.07 -142.67,-203.24 223.13,-241.19 50.94,-402.19 -144.84,-61.24 -204.14,-41.47 -200.05,116.38 30.65,123.91 -35.54,198.44 -168.72,180.02 -350.44,-89.1 -143.11,-574.06 -64.87,-762.28l0 0.02c80.84,-134.85 172.63,-190.89 323.97,-214.95 -491.71,304.98 -391.56,892.34 -214.08,857.13 -5.95,-131.26 -42.72,-298.81 150.44,-344.51 518.66,-122.74 339.06,311.09 269.34,480.35 137.19,153.55 -61.97,432.24 -507.35,229.38 146.87,130.93 -158.06,470.89 -253.71,461.81l-0.14 -0.26 0.19 -0.43 -0.26 -0.19c-0.02,0.02 -82.3,225.35 -209.9,217.11zm723.81 -2067.01c-142.19,78.55 -288.92,206.71 -375.52,260.3l-6.92 21.46 -19.7 -6.49c-87.26,42.7 -76.68,-43.17 145.24,-475.44 53.7,-104.6 125.31,-183.76 200.26,-223.48 -145.88,24.2 -284.15,19.03 -288.02,-15.4 -1.49,-13.04 1.84,-24.7 -6.4,-40.07 0.4,0 0.12,-0.02 0.85,0.31 -238.08,-170.11 149.32,-106.6 34.22,-277.21 -105.82,-115.91 -43.69,-214.53 59.89,-290.9 -32.02,-1.51 -79.21,7.72 -112.63,27.04 -48.63,60.03 -92.2,95.39 -118.58,83.51 -104.43,-47.02 -62.91,-102.97 25.51,-143.92 82.72,-97.42 167.39,-206.78 211.34,-327.42 -206.26,296.36 -249.27,263.56 -230.73,120.66l-20.55 -22.37 28.69 -28.01c33.54,-179.41 127.15,-461.53 148.1,-560.65 -69.79,-19.18 -131.09,6.26 -179.32,52.43 -11.31,43.67 -37.08,80.51 -81.67,105.21l-32.14 -11.57c-9.85,-42.89 12.94,-88.16 51.98,-126.32 57.24,-162.72 -39.23,-282.48 -157.52,-437 -118.3,154.5 -214.74,274.26 -157.5,437 39.04,38.14 61.83,83.43 51.98,126.32l-32.14 11.57c-44.56,-24.7 -70.35,-61.54 -81.66,-105.21 -48.22,-46.17 -109.56,-71.58 -179.32,-52.43 20.93,99.12 114.52,381.14 148.1,560.65l28.69 28.01 -20.55 22.37c18.59,143.02 -24.46,175.7 -230.73,-120.66 43.95,120.63 128.59,230 211.34,327.42 88.44,40.95 129.94,96.9 25.51,143.92 -26.38,11.88 -69.95,-23.43 -118.58,-83.51 -33.42,-19.32 -80.6,-28.55 -112.63,-27.04 103.56,76.37 165.72,175 59.89,290.9 -115.1,170.61 272.3,107.1 34.22,277.21 0.73,-0.33 0.45,-0.31 0.85,-0.31 -8.24,15.35 -4.91,27.04 -6.4,40.07 -3.87,34.43 -142.15,39.61 -288.02,15.4 74.96,39.72 146.56,118.88 200.26,223.48 221.92,432.3 232.53,518.14 145.24,475.44l-19.7 6.49 -6.92 -21.46c-86.6,-53.59 -233.31,-181.75 -375.52,-260.3 114.66,25.62 248.66,78.45 344,163.26 -100.46,-303.02 -264.67,-707.02 -558.95,-417.61 23.05,319.17 -159.53,323.64 -224.8,198.92 58.54,320.28 256.09,766.94 -67.8,536.87 -8.41,-5.98 -15.85,-12.3 -22.51,-19.04 -207.99,81.19 -456.26,-660.81 11.79,-977.64 -174.95,-418.15 -605.33,-564.26 -450.74,-688.11 -118.86,-197.24 5.36,-410.07 190.42,-277.63 64.21,-66.5 169.7,-50.85 242.85,118.57 138.3,-232.24 321.58,-205.18 373.72,-112.01 79.78,-3.61 141.34,24.63 139.41,107.88 116.31,63.72 25.79,171.33 -73.9,256.3 24.8,17.85 38.17,48.81 34.88,96.12 129.28,-3.85 141.3,143.94 66.86,229.24 6.04,56.11 -78.93,114.02 -128.4,150.74 104.07,54.83 248.82,34.91 357.69,82.4l2.36 -3.47c-279.45,-207.26 168.55,-123.09 -105.96,-429.22 -126.25,-140.8 10.06,-169.26 159.83,-145.69 -173.58,-273.12 -333.06,-700.48 8.38,-380.88 -218.07,-479.83 33.65,-510.8 199.28,-417.49 11.78,-139.98 118.01,-309 223.69,-388.8l-3.9 -5.1 5.39 3.97 5.41 -3.97 -3.9 5.1c105.68,79.8 211.91,248.84 223.69,388.8 165.64,-93.38 417.37,-62.32 199.27,417.49 341.47,-319.62 181.94,107.78 8.39,380.88 149.77,-23.57 286.06,4.89 159.83,145.69 -274.49,306.13 173.48,221.99 -105.97,429.22l2.36 3.47c108.87,-47.49 253.61,-27.54 357.69,-82.4 -49.48,-36.72 -134.47,-94.65 -128.4,-150.74 -74.48,-85.3 -62.39,-233.09 66.86,-229.24 -3.31,-47.33 10.08,-78.24 34.88,-96.12 -99.73,-84.97 -190.23,-192.59 -73.9,-256.3 -1.91,-83.27 59.63,-111.47 139.41,-107.88 52.12,-93.14 235.46,-120.28 373.73,112.01 73.14,-169.44 178.61,-185.06 242.85,-118.57 185.06,-132.46 309.28,80.39 190.42,277.63 154.57,123.85 -275.81,269.96 -450.74,688.11 468.07,316.83 219.75,1058.86 11.78,977.64 -6.66,6.73 -14.1,13.06 -22.5,19.04 -323.9,230.07 -126.35,-216.59 -67.8,-536.87 -65.28,124.72 -247.85,120.23 -224.8,-198.92 -294.28,-289.42 -458.46,114.59 -558.95,417.61 95.34,-84.81 229.34,-137.64 344,-163.26zm66.1 -451.26c101.69,9.9 194.62,108.02 241.03,330.42 1.39,6.73 9.54,39.39 18.16,42.3l0 -0.12c83.6,1.98 -212.21,-521.21 73.47,-386.29 -74.11,-151.33 -63.15,-315.23 264.31,-575.31 59.61,-47.33 88.59,-58.47 146.75,-72.5 -122.76,-95.2 37.93,-156.2 48.51,-220.39 -4.87,5.83 -11.48,13.94 -20.59,25.25l-138.63 -18.35c-33.51,53.16 -46.76,198.24 -50.68,230.31l-8.78 2.76c1.56,6.31 3.14,12.5 4.65,18.96l-38.59 -8.29 -135.7 42.67c-24.8,-99.94 -54.01,-313.31 -185.43,-316.98l-39.28 76.68c-13.04,-5.34 -27.04,-11.33 -41.3,-16.44 -2.17,18.96 -11.69,33.46 -29.09,46.29 96.05,74.3 413.76,317.02 163.21,331.95 -26.17,1.56 -61.17,-19.06 -97.81,-34.83 28.39,82.35 -6.8,105.66 -67.33,106.41l23.57 91.28c183.43,150.37 49.88,251.68 -130.43,304.22zm511.2 269.18c-6.9,186.81 -105.85,425.02 -149.37,561.95 11.19,-4.7 17.9,-15.96 25.24,-33.84l116.62 -17.26 0.05 0.07c3.64,-1.74 5.17,-3.16 9.54,-6.33l-2.05 0.54c109.04,-219.02 71.84,-373.94 -0.02,-505.13zm-5.43 513.09l0.21 0.19 0.07 -0.02 -0.28 -0.17zm88.77 -1692.76l-0.38 -1.96c0.05,0.66 0.17,1.3 0.38,1.96zm-374.43 1.75c21.13,-15.04 32.05,-36.18 30.35,-59.25l-30.35 59.25zm167.44 1142.32c-3.61,-50.82 -18.8,-89.46 -51.22,-108.97 25.77,37.79 42.2,74.46 51.22,108.97zm-1177.24 1514.48c-77.25,110.88 -289.7,137.82 -406.34,148.55 -0.85,2.41 -1.68,5.22 -2.41,8.12 124.53,80.48 83.67,294.94 137.66,326.97 309.58,183.69 1.04,70.28 271.09,223.24 270.1,-153.04 -38.47,-39.56 271.11,-223.24 53.99,-32.02 13.13,-246.48 137.66,-326.97 -0.76,-2.91 -1.56,-5.72 -2.41,-8.12 -116.64,-10.72 -329.11,-37.67 -406.36,-148.55zm405.09 145.33l-1.02 -1.89c0.31,0.76 0.66,1.37 1.02,1.89zm101.07 -298.3l-1.98 -0.26 2.29 0.35 -0.31 -0.09zm49.83 -121.2l1.7 -0.38c-0.5,-0.12 -1.11,0.05 -1.7,0.38zm-167.2 328.83c-73.54,-40.06 -152.89,-92.51 -237.82,-159.86 7.18,74.27 36.91,147.22 119.71,146.89 47.59,-0.19 86.56,4.46 118.11,12.97zm-1566.02 -1569.16c9.02,-34.5 25.46,-71.18 51.22,-108.97 -32.43,19.51 -47.61,58.15 -51.22,108.97zm-152.07 -864.83l-38.59 8.29c1.51,-6.47 3.09,-12.66 4.65,-18.96l-8.78 -2.76c-3.92,-32.07 -17.17,-177.15 -50.68,-230.31l-138.63 18.35c-9.12,-11.31 -15.73,-19.41 -20.59,-25.25 10.58,64.19 171.26,125.19 48.51,220.39 58.17,14.05 87.14,25.17 146.75,72.5 327.46,260.09 338.42,423.98 264.31,575.31 285.69,-134.92 -10.13,388.28 73.47,386.29l0 0.12c8.62,-2.91 16.77,-35.57 18.16,-42.3 46.41,-222.39 139.34,-320.52 241.03,-330.42 -180.31,-52.57 -313.86,-153.86 -130.43,-304.22l23.57 -91.28c-60.5,-0.73 -95.69,-24.06 -67.33,-106.41 -36.65,15.78 -71.65,36.39 -97.82,34.83 -250.54,-14.93 67.17,-257.65 163.21,-331.95 -17.41,-12.85 -26.94,-27.35 -29.09,-46.29 -14.26,5.1 -28.27,11.1 -41.31,16.44l-39.27 -76.68c-131.43,3.66 -160.64,217.03 -185.43,316.98l-135.7 -42.67zm319.5 -277.49l-30.35 -59.25c-1.7,23.07 9.21,44.21 30.35,59.25zm-374.44 -1.75c0.21,-0.66 0.33,-1.3 0.38,-1.96l-0.38 1.96zm83.34 1179.68c-71.86,131.19 -109.08,286.11 -0.02,505.13l-2.06 -0.54c4.37,3.17 5.91,4.58 9.54,6.33l0.05 -0.07 116.61 17.26c7.35,17.88 14.06,29.15 25.25,33.84 -43.52,-136.9 -142.45,-375.17 -149.37,-561.95zm5.43 513.09l-0.28 0.17 0.07 0.02 0.21 -0.19zm906.67 1020.46c31.55,-8.5 70.52,-13.16 118.11,-12.97 82.8,0.33 112.53,-72.62 119.71,-146.89 -84.9,67.3 -164.27,119.78 -237.81,159.86zm-117.37 -207.64l-0.31 0.09 2.29 -0.35 -1.98 0.26zm101.07 298.3c0.35,-0.52 0.71,-1.13 1.02,-1.89l-1.02 1.89z"/>
  </g>
  <path class="fil4" d="M20032.91 19454.87c0,0 -197.86,20.85 -229.1,-156.2 -31.24,-177.05 -140.59,72.88 -192.66,-208.3 -52.07,-281.17 -140.61,-119.76 -104.15,-249.93 36.46,-130.17 333.25,140.61 374.91,-249.93 41.66,-390.54 -281.2,416.57 -812.3,140.59 0,0 -88.49,-52.07 5.22,-114.56 93.71,-62.49 -276,-239.52 -26.05,-421.76 0,0 348.88,-156.2 307.22,192.66 0,0 -46.85,135.39 93.73,109.34 0,0 322.86,-46.85 41.66,-687.33 0,0 -72.93,-166.63 -291.61,-229.12m41.66 -166.61c0,0 338.44,114.54 406.15,275.96 0,0 -255.13,-1041.41 -666.5,-546.74 0,0 36.44,281.17 -93.73,234.32 -130.17,-46.85 -20.83,-286.42 72.91,-348.88 0,0 -265.54,-78.1 -239.52,208.3 26.02,286.39 234.3,593.62 135.37,619.64 -98.93,26.03 -130.17,-78.1 -130.17,-78.1 0,0 -36.46,62.49 -104.15,10.42 -67.69,-52.07 -229.13,-687.35 192.66,-859.19 0,0 -151.03,-525.91 -426.98,-557.15 0,0 -145.81,-88.54 10.41,-135.39 0,0 -140.59,-114.54 -78.1,-229.1 62.49,-114.56 171.83,78.1 171.83,78.1 0,0 -5.22,-145.81 88.52,-83.32 93.73,62.49 104.15,354.1 104.15,354.1 0,0 78.1,-395.76 244.74,-390.54 166.63,5.22 31.24,88.51 31.24,88.51 0,0 229.1,-104.12 161.42,46.88 0,0 109.37,20.83 15.63,119.76 -93.73,98.93 -203.1,46.85 -229.13,192.66 0,0 208.27,-114.56 203.07,0 0,0 -78.1,124.98 0,83.31 78.1,-41.66 135.37,-20.8 88.52,62.49 -46.85,83.3 -135.37,41.66 -135.37,41.66 0,0 161.42,31.24 78.1,78.1 -83.31,46.85 -203.05,109.34 -36.44,171.83 166.61,62.49 369.69,36.44 411.35,130.17 0,0 -10.44,-104.15 67.69,-114.56 78.12,-10.41 -229.1,-62.46 -78.1,-249.93 0,0 130.19,-119.74 -88.52,-229.1 0,0 -36.46,-98.95 119.76,-78.12 156.22,20.83 166.63,114.56 166.63,114.56 0,0 -265.56,-296.79 -286.39,-484.25 -20.83,-187.46 -5.2,-119.78 83.32,-26.05 88.51,93.73 156.2,192.69 218.69,229.13 0,0 -208.3,-296.81 -192.66,-650.89 0,0 161.42,-72.9 275.98,98.93 114.56,171.83 -119.76,-88.51 0,-281.17 119.76,-192.66 166.61,-218.71 166.61,-218.71m-73.28 4363.52c0,0 197.86,20.85 229.1,-156.2 31.24,-177.05 140.59,72.88 192.66,-208.3 52.07,-281.17 140.61,-119.76 104.15,-249.93 -36.46,-130.17 -333.25,140.61 -374.91,-249.93 -41.66,-390.54 281.2,416.57 812.3,140.59 0,0 88.49,-52.07 -5.22,-114.56 -93.71,-62.49 276,-239.52 26.05,-421.76 0,0 -348.89,-156.2 -307.22,192.66 0,0 46.85,135.39 -93.73,109.34 0,0 -322.86,-46.85 -41.66,-687.33 0,0 72.93,-166.63 291.61,-229.12m-41.66 -166.61c0,0 -338.44,114.54 -406.15,275.96 0,0 255.13,-1041.41 666.5,-546.74 0,0 -36.44,281.17 93.73,234.32 130.17,-46.85 20.83,-286.42 -72.9,-348.88 0,0 265.54,-78.1 239.52,208.3 -26.02,286.39 -234.3,593.62 -135.37,619.64 98.93,26.03 130.17,-78.1 130.17,-78.1 0,0 36.46,62.49 104.15,10.42 67.69,-52.07 229.13,-687.35 -192.66,-859.19 0,0 151.02,-525.91 426.98,-557.15 0,0 145.81,-88.54 -10.41,-135.39 0,0 140.59,-114.54 78.1,-229.1 -62.49,-114.56 -171.83,78.1 -171.83,78.1 0,0 5.22,-145.81 -88.52,-83.32 -93.73,62.49 -104.15,354.1 -104.15,354.1 0,0 -78.1,-395.76 -244.74,-390.54 -166.63,5.22 -31.24,88.51 -31.24,88.51 0,0 -229.1,-104.12 -161.42,46.88 0,0 -109.37,20.83 -15.63,119.76 93.73,98.93 203.1,46.85 229.13,192.66 0,0 -208.27,-114.56 -203.08,0 0,0 78.1,124.98 0,83.31 -78.1,-41.66 -135.37,-20.8 -88.51,62.49 46.85,83.3 135.37,41.66 135.37,41.66 0,0 -161.42,31.24 -78.1,78.1 83.32,46.85 203.06,109.34 36.44,171.83 -166.61,62.49 -369.69,36.44 -411.35,130.17 0,0 10.44,-104.15 -67.69,-114.56 -78.12,-10.41 229.1,-62.46 78.1,-249.93 0,0 -130.2,-119.74 88.52,-229.1 0,0 36.46,-98.95 -119.76,-78.12 -156.22,20.83 -166.63,114.56 -166.63,114.56 0,0 265.56,-296.79 286.39,-484.25 20.83,-187.46 5.19,-119.78 -83.32,-26.05 -88.52,93.73 -156.2,192.69 -218.69,229.13 0,0 208.3,-296.81 192.66,-650.89 0,0 -161.42,-72.9 -275.98,98.93 -114.56,171.83 119.76,-88.51 0,-281.17 -119.76,-192.66 -166.61,-218.71 -166.61,-218.71"/>
  <g id="_1978267023744">
   <path class="fil5" d="M17350.17 23611.07c1229.79,80.08 150.72,1755.78 -480.76,802.57 -245.59,-370.73 19.98,-772.61 480.76,-802.57zm0 0c-508.29,61.64 -682.04,550.85 -352.78,820.69 649.87,532.62 1325.51,-702.63 352.78,-820.69z"/>
  </g>
  <ellipse class="fil4" cx="17350.17" cy="24110.94" rx="541.52" ry="499.86"/>
 </g>
</svg>
